<!DOCTYPE svg PUBLIC "-//W3C//DTD SVG 20010904//EN" "http://www.w3.org/TR/2001/REC-SVG-20010904/DTD/svg10.dtd">
<svg version="1.0" xmlns="http://www.w3.org/2000/svg" width="40px" height="40px" viewBox="0 0 400 400" preserveAspectRatio="xMidYMid meet">
<g id="layer101" fill="#ffffff" stroke="none">
 <path d="M43 351 l-43 -50 0 -101 0 -101 43 -50 42 -49 153 0 c181 0 190 8 72 65 -44 21 -80 42 -80 45 0 3 16 21 35 40 19 19 35 41 35 50 0 9 -16 31 -35 50 -19 19 -35 37 -35 40 0 3 36 24 80 45 118 57 109 65 -72 65 l-153 0 -42 -49z m215 -7 c-44 -22 -68 -40 -68 -51 0 -10 17 -34 37 -55 l37 -38 -37 -38 c-20 -21 -37 -45 -37 -55 0 -11 24 -29 68 -51 l67 -35 -105 -1 -104 0 -48 47 -48 47 0 85 0 85 47 48 47 48 106 0 105 -1 -67 -35z"/>
 </g>

</svg>